<?xml version="1.0" standalone="no"?>
<!DOCTYPE svg PUBLIC "-//W3C//DTD SVG 20010904//EN"
 "http://www.w3.org/TR/2001/REC-SVG-20010904/DTD/svg10.dtd">
<svg version="1.0" xmlns="http://www.w3.org/2000/svg"
 width="540.000000pt" height="360.000000pt" viewBox="0 0 540.000000 360.000000"
 preserveAspectRatio="xMidYMid meet">

<g transform="translate(0.000000,360.000000) scale(0.100000,-0.100000)"
fill="#000000" stroke="none">
<path d="M2857 2453 c-4 -3 -7 -283 -8 -622 0 -339 -3 -632 -7 -651 -4 -19
-14 -37 -22 -39 -30 -9 -1230 -12 -1470 -3 -137 4 -252 4 -260 -1 -13 -7 -13
-8 0 -4 8 2 20 -2 25 -8 45 -54 270 -71 1025 -80 311 -3 606 -11 655 -17 114
-14 183 -14 826 0 532 11 705 21 769 43 56 20 141 82 205 151 270 289 257 792
-26 1068 -97 95 -167 128 -299 140 -173 17 -1400 37 -1413 23z m1345 -193
c209 -10 241 -19 285 -77 34 -45 20 -62 -28 -34 -60 35 -181 41 -896 41 -639
0 -683 -1 -692 -17 -9 -15 -10 -13 -11 14 0 18 5 44 12 58 l11 25 566 0 c311
-1 650 -5 753 -10z"/>
</g>
</svg>
